<?xml version="1.0" encoding="UTF-8"?>
<svg width="412px" height="201px" viewBox="0 0 412 201" version="1.1" xmlns="http://www.w3.org/2000/svg" xmlns:xlink="http://www.w3.org/1999/xlink">
    <!-- Generator: Sketch 53.2 (72643) - https://sketchapp.com -->
    <title>button-image</title>
    <desc>Created with Sketch.</desc>
    <g id="Page-1" stroke="none" stroke-width="1" fill="none" fill-rule="evenodd">
        <g id="button-image">
            <g id="draw">
                <rect id="Rectangle" fill="#E9E9E9" x="1" y="0" width="411" height="135" rx="3"></rect>
                <rect id="Rectangle" stroke="#BE5353" fill="#98CDFF" x="24.5" y="24.5" width="85" height="85" rx="1"></rect>
                <rect id="Rectangle" fill="#D8D8D8" x="138" y="32" width="246" height="71" rx="1"></rect>
                <path id="Line" d="M15.5,68 L9.5,68 L9.5,71.4631401 C9.5,71.7596396 9.25963965,72 8.96314013,72 C8.87979527,72 8.79759501,71.9805952 8.72304909,71.9433222 L0.796886441,67.9802409 C0.531689208,67.8476423 0.424196791,67.525165 0.556795407,67.2599678 C0.608743956,67.1560707 0.692989345,67.0718253 0.796886441,67.0198767 L8.72304909,63.0567954 C8.98824633,62.9241968 9.31072358,63.0316892 9.4433222,63.2968864 C9.48059515,63.3714324 9.5,63.4536326 9.5,63.5369775 L9.5,67 L15.5,67 L15.5,63.5369775 C15.5,63.4536326 15.5194048,63.3714324 15.5566778,63.2968864 C15.6892764,63.0316892 16.0117537,62.9241968 16.2769509,63.0567954 L24.2031136,67.0198767 C24.3070107,67.0718253 24.391256,67.1560707 24.4432046,67.2599678 C24.5758032,67.525165 24.4683108,67.8476423 24.2031136,67.9802409 L16.2769509,71.9433222 C16.202405,71.9805952 16.1202047,72 16.0368599,72 C15.7403604,72 15.5,71.7596396 15.5,71.4631401 L15.5,68 Z" fill="#BE5353" fill-rule="nonzero"></path>
                <path id="Line-Copy-3" d="M129.5,68 L118.5,68 L118.5,71.4631401 C118.5,71.7596396 118.25964,72 117.96314,72 C117.879795,72 117.797595,71.9805952 117.723049,71.9433222 L109.796886,67.9802409 C109.531689,67.8476423 109.424197,67.525165 109.556795,67.2599678 C109.608744,67.1560707 109.692989,67.0718253 109.796886,67.0198767 L117.723049,63.0567954 C117.988246,62.9241968 118.310724,63.0316892 118.443322,63.2968864 C118.480595,63.3714324 118.5,63.4536326 118.5,63.5369775 L118.5,67 L129.5,67 L129.5,63.5369775 C129.5,63.4536326 129.519405,63.3714324 129.556678,63.2968864 C129.689276,63.0316892 130.011754,62.9241968 130.276951,63.0567954 L138.203114,67.0198767 C138.307011,67.0718253 138.391256,67.1560707 138.443205,67.2599678 C138.575803,67.525165 138.468311,67.8476423 138.203114,67.9802409 L130.276951,71.9433222 C130.202405,71.9805952 130.120205,72 130.03686,72 C129.74036,72 129.5,71.7596396 129.5,71.4631401 L129.5,68 Z" fill="#BE5353" fill-rule="nonzero"></path>
                <path id="Line-Copy" d="M70.0057998,12.3403921 L63.5048379,12.4095513 L63.5416777,15.8724955 C63.5448318,16.1689782 63.3070419,16.4118818 63.0105592,16.4150359 C62.927219,16.4159225 62.844817,16.3973932 62.7698788,16.3609153 L54.8020066,12.4823744 C54.5354138,12.3526043 54.4244971,12.0312888 54.5542671,11.764696 C54.6051075,11.6602522 54.6884519,11.5751154 54.7917905,11.5220646 L62.6753467,7.47489136 C62.9391183,7.33947916 63.2627208,7.44353508 63.398133,7.70730677 C63.4361969,7.78145196 63.456475,7.86344115 63.4573616,7.94678129 L63.4942002,11.4096079 L69.9951621,11.3404487 L69.9583235,7.87762213 C69.9574369,7.79428198 69.9759663,7.71187995 70.0124441,7.63694176 C70.1422141,7.37034898 70.4635297,7.25943223 70.7301224,7.38920226 L78.6979947,11.2677432 C78.8024385,11.3185836 78.8875753,11.4019281 78.9406261,11.5052667 C79.0760383,11.7690384 78.9719824,12.0926408 78.7082107,12.228053 L70.8246546,16.2752262 C70.7505094,16.3132901 70.6685202,16.3335682 70.5851801,16.3344548 C70.2886973,16.3376089 70.0457937,16.099819 70.0426396,15.8033363 L70.0057998,12.3403921 Z" fill="#BE5353" fill-rule="nonzero"></path>
                <path id="Line-Copy-2" d="M70,122 L63,122 L63,125.46314 C63,125.75964 62.7596396,126 62.4631401,126 C62.3797953,126 62.297595,125.980595 62.2230491,125.943322 L54.2968864,121.980241 C54.0316892,121.847642 53.9241968,121.525165 54.0567954,121.259968 C54.108744,121.156071 54.1929893,121.071825 54.2968864,121.019877 L62.2230491,117.056795 C62.4882463,116.924197 62.8107236,117.031689 62.9433222,117.296886 C62.9805952,117.371432 63,117.453633 63,117.536977 L63,121 L70,121 L70,117.536977 C70,117.453633 70.0194048,117.371432 70.0566778,117.296886 C70.1892764,117.031689 70.5117537,116.924197 70.7769509,117.056795 L78.7031136,121.019877 C78.8070107,121.071825 78.891256,121.156071 78.9432046,121.259968 C79.0758032,121.525165 78.9683108,121.847642 78.7031136,121.980241 L70.7769509,125.943322 C70.702405,125.980595 70.6202047,126 70.5368599,126 C70.2403604,126 70,125.75964 70,125.46314 L70,122 Z" fill="#BE5353" fill-rule="nonzero"></path>
                <text id="Top" font-family="PingFangSC-Semibold, PingFang SC" font-size="10" font-weight="500" fill="#1D1C1C">
                    <tspan x="76" y="14">Top</tspan>
                </text>
                <text id="Bottom" font-family="PingFangSC-Semibold, PingFang SC" font-size="10" font-weight="500" fill="#1D1C1C">
                    <tspan x="76" y="127">Bottom</tspan>
                </text>
                <text id="Right" font-family="PingFangSC-Semibold, PingFang SC" font-size="10" font-weight="500" fill="#1D1C1C">
                    <tspan x="111" y="58">Right</tspan>
                </text>
                <text id="Left" font-family="PingFangSC-Semibold, PingFang SC" font-size="10" font-weight="500" fill="#1D1C1C">
                    <tspan x="3" y="58">Left</tspan>
                </text>
            </g>
            <text id="如果相对位置内收则用正数-如果相对位置外" font-family="PingFangSC-Semibold, PingFang SC" font-size="10" font-weight="500">
                <tspan x="0" y="157" fill="#1D1C1C">如果相对位置</tspan>
                <tspan x="60" y="157" fill="#BE5353">内收</tspan>
                <tspan x="80" y="157" fill="#1D1C1C">则用</tspan>
                <tspan x="100" y="157" fill="#FF8F00">正数</tspan>
                <tspan x="120" y="157" fill="#1D1C1C"></tspan>
                <tspan x="0" y="171" fill="#1D1C1C">如果相对位置</tspan>
                <tspan x="60" y="171" fill="#BE5353">外扩</tspan>
                <tspan x="80" y="171" fill="#1D1C1C">则用</tspan>
                <tspan x="100" y="171" fill="#FF8F00">负数</tspan>
                <tspan x="0" y="185" fill="#222121">位移为</tspan>
                <tspan x="30" y="185" fill="#BE5353">相对初始位置</tspan>
                <tspan x="90" y="185" fill="#222121">的移动</tspan>
                <tspan x="120" y="185" fill="#FF8F00"></tspan>
                <tspan x="0" y="199" fill="#1F1E1E">所有数值均为偏移量（数值）与坐标系无关且在实际使用中发现设置参数需设置为计算值</tspan>
                <tspan x="390" y="199" fill="#BE5353">2倍</tspan>
            </text>
        </g>
    </g>
</svg>